<svg xmlns="http://www.w3.org/2000/svg" width="256" height="256" fill="none" viewBox="0 0 256 256"><clipPath id="b"><path d="M31.744 31.744h192.512v192.512H31.744z"/></clipPath><mask id="a" width="256" height="256" x="0" y="0" maskUnits="userSpaceOnUse"><path fill="#fff" d="M0 0h256v256H0z"/></mask><mask id="c" width="194" height="194" x="31" y="31" maskUnits="userSpaceOnUse"><path fill="#fff" d="M31.744 31.744h192.512v192.512H31.744z"/></mask><g mask="url(#a)"><rect width="256" height="256" x="-.296" fill="#111" rx="10.24"/><g clip-path="url(#b)" mask="url(#c)"><path stroke="#fcebd8" stroke-linecap="round" stroke-linejoin="round" stroke-miterlimit="10" stroke-width="7.52" d="m215.503 116.44 4.907-29.664-7.994 3.432c-9.869-22.07-27.615-39.125-50.118-48.11-22.945-9.161-48.085-8.839-70.788.908-22.702 9.747-40.25 27.751-49.412 50.696l13.968 5.577c7.672-19.214 22.366-34.291 41.377-42.452 19.012-8.163 40.064-8.433 59.278-.761 18.773 7.495 33.592 21.697 41.875 40.076l-7.979 3.426zM40.497 139.56l-4.907 29.664 7.994-3.432c9.87 22.069 27.615 39.125 50.119 48.11 22.945 9.161 48.085 8.839 70.787-.908 22.703-9.747 40.251-27.751 49.412-50.696l-13.967-5.577c-7.672 19.214-22.367 34.291-41.378 42.452-19.011 8.163-40.063 8.433-59.277.761-18.773-7.495-33.593-21.697-41.876-40.076l7.98-3.426z"/><path fill="#fcebd8" d="M92.526 101.467a6.31 6.31 0 0 1 0-8.928 6.317 6.317 0 0 1 8.931 0 6.312 6.312 0 0 1 0 8.928 6.316 6.316 0 0 1-8.931 0z"/><g stroke="#fcebd8" stroke-linecap="round" stroke-linejoin="round" stroke-miterlimit="10" stroke-width="7.52"><path d="m131.753 116.968 40.931 40.916-1.055 13.724-13.729 1.056-4.755-4.753-2.357-7.497-3.52-3.519-7.03-1.886-4.577-4.575-1.417-6.558-4.107-4.106-7.148-2.004-6.021-6.018"/><path d="M84.693 125.302c-11.214-11.209-11.214-29.383 0-40.593 11.213-11.209 29.394-11.209 40.607 0 11.214 11.21 11.214 29.384 0 40.593-11.213 11.209-29.394 11.209-40.607 0z"/></g></g></g></svg>
